<mxfile host="app.diagrams.net" modified="2024-05-29T14:49:25.741Z" agent="Mozilla/5.0 (Windows NT 10.0; Win64; x64) AppleWebKit/537.36 (KHTML, like Gecko) Chrome/125.0.0.0 Safari/537.36" etag="KdcgwSKpLUmeeBfT9_Eg" version="24.4.9" type="github">
  <diagram name="Seite-1" id="E304glDuHv-My9nMEjOT">
    <mxGraphModel dx="1434" dy="738" grid="0" gridSize="10" guides="1" tooltips="1" connect="1" arrows="1" fold="1" page="1" pageScale="1" pageWidth="827" pageHeight="1169" background="none" math="0" shadow="0">
      <root>
        <mxCell id="0" />
        <mxCell id="1" parent="0" />
        <mxCell id="v3sZ_OI-lQdHN_WBkO5k-1" value="&lt;b&gt;&lt;font face=&quot;Helvetica&quot;&gt;Log in to BOLD&lt;/font&gt;&lt;/b&gt;" style="rounded=1;whiteSpace=wrap;html=1;flipV=1;labelBackgroundColor=none;fillColor=#B2C9AB;strokeColor=#000000;fontColor=#000000;glass=0;shadow=0;sketch=1;curveFitting=1;jiggle=2;" parent="1" vertex="1">
          <mxGeometry x="80" y="40" width="120" height="60" as="geometry" />
        </mxCell>
        <mxCell id="v3sZ_OI-lQdHN_WBkO5k-2" value="&lt;b&gt;Generate download links from the &quot;species level barcodes&quot; database&amp;nbsp;&lt;/b&gt;" style="rounded=1;whiteSpace=wrap;html=1;flipV=1;labelBackgroundColor=none;fillColor=#B2C9AB;strokeColor=#000000;fontColor=#000000;sketch=1;curveFitting=1;jiggle=2;" parent="1" vertex="1">
          <mxGeometry x="37" y="148" width="206" height="60" as="geometry" />
        </mxCell>
        <mxCell id="v3sZ_OI-lQdHN_WBkO5k-3" value="&lt;b&gt;Download the top 100 hits for each of the links&lt;/b&gt;" style="rounded=1;whiteSpace=wrap;html=1;flipV=1;labelBackgroundColor=none;fillColor=#B2C9AB;strokeColor=#000000;fontColor=#000000;sketch=1;curveFitting=1;jiggle=2;" parent="1" vertex="1">
          <mxGeometry x="37" y="257" width="206" height="60" as="geometry" />
        </mxCell>
        <mxCell id="v3sZ_OI-lQdHN_WBkO5k-12" value="&lt;b&gt;File: FASTA_NAME_download_links.h5.lz&lt;/b&gt;" style="shape=internalStorage;whiteSpace=wrap;html=1;backgroundOutline=1;labelBackgroundColor=none;fillColor=#B2C9AB;strokeColor=#000000;fontColor=#000000;sketch=1;curveFitting=1;jiggle=2;" parent="1" vertex="1">
          <mxGeometry x="330" y="143" width="360" height="70" as="geometry" />
        </mxCell>
        <mxCell id="v3sZ_OI-lQdHN_WBkO5k-24" value="&lt;b&gt;File: FASTA_NAME_top_100_hits.h5.lz&lt;/b&gt;" style="shape=internalStorage;whiteSpace=wrap;html=1;backgroundOutline=1;labelBackgroundColor=none;fillColor=#B2C9AB;strokeColor=#000000;fontColor=#000000;sketch=1;curveFitting=1;jiggle=2;" parent="1" vertex="1">
          <mxGeometry x="330" y="252" width="360" height="70" as="geometry" />
        </mxCell>
        <mxCell id="v3sZ_OI-lQdHN_WBkO5k-28" value="" style="html=1;shadow=0;dashed=0;align=center;verticalAlign=middle;shape=mxgraph.arrows2.sharpArrow2;dy1=0.67;dx1=18;dx2=18;dy3=0.15;dx3=27;notch=0;rotation=90;flipV=1;labelBackgroundColor=none;fillColor=#B2C9AB;strokeColor=#000000;fontColor=#46495D;sketch=1;curveFitting=1;jiggle=2;" parent="1" vertex="1">
          <mxGeometry x="121.75" y="94" width="36.5" height="60" as="geometry" />
        </mxCell>
        <mxCell id="v3sZ_OI-lQdHN_WBkO5k-29" value="" style="html=1;shadow=0;dashed=0;align=center;verticalAlign=middle;shape=mxgraph.arrows2.sharpArrow2;dy1=0.67;dx1=18;dx2=18;dy3=0.15;dx3=27;notch=0;rotation=90;flipV=1;labelBackgroundColor=none;fillColor=#B2C9AB;strokeColor=#000000;fontColor=#46495D;sketch=1;curveFitting=1;jiggle=2;" parent="1" vertex="1">
          <mxGeometry x="121.75" y="202" width="36.5" height="60" as="geometry" />
        </mxCell>
        <mxCell id="qcUZMT7_kW-sap-ayvWj-1" value="&lt;b&gt;Generate download links from the &quot;all records&quot; database&amp;nbsp;&lt;/b&gt;" style="rounded=1;whiteSpace=wrap;html=1;flipV=1;labelBackgroundColor=none;fillColor=#B2C9AB;strokeColor=#000000;fontColor=#000000;sketch=1;curveFitting=1;jiggle=2;" parent="1" vertex="1">
          <mxGeometry x="37" y="365" width="206" height="60" as="geometry" />
        </mxCell>
        <mxCell id="qcUZMT7_kW-sap-ayvWj-2" value="" style="html=1;shadow=0;dashed=0;align=center;verticalAlign=middle;shape=mxgraph.arrows2.sharpArrow2;dy1=0.67;dx1=18;dx2=18;dy3=0.15;dx3=27;notch=0;rotation=90;flipV=1;labelBackgroundColor=none;fillColor=#B2C9AB;strokeColor=#000000;fontColor=#46495D;sketch=1;curveFitting=1;jiggle=2;" parent="1" vertex="1">
          <mxGeometry x="121.75" y="311" width="36.5" height="60" as="geometry" />
        </mxCell>
        <mxCell id="qcUZMT7_kW-sap-ayvWj-12" value="&lt;b&gt;Download the top 100 hits for each of the links&lt;/b&gt;" style="rounded=1;whiteSpace=wrap;html=1;flipV=1;labelBackgroundColor=none;fillColor=#B2C9AB;strokeColor=#000000;fontColor=#000000;sketch=1;curveFitting=1;jiggle=2;" parent="1" vertex="1">
          <mxGeometry x="37" y="473" width="206" height="60" as="geometry" />
        </mxCell>
        <mxCell id="qcUZMT7_kW-sap-ayvWj-13" value="" style="html=1;shadow=0;dashed=0;align=center;verticalAlign=middle;shape=mxgraph.arrows2.sharpArrow2;dy1=0.67;dx1=18;dx2=18;dy3=0.15;dx3=27;notch=0;rotation=90;flipV=1;labelBackgroundColor=none;fillColor=#B2C9AB;strokeColor=#000000;fontColor=#46495D;sketch=1;curveFitting=1;jiggle=2;" parent="1" vertex="1">
          <mxGeometry x="121.75" y="419" width="36.5" height="60" as="geometry" />
        </mxCell>
        <mxCell id="qcUZMT7_kW-sap-ayvWj-19" value="" style="html=1;shadow=0;dashed=0;align=center;verticalAlign=middle;shape=mxgraph.arrows2.sharpArrow2;dy1=0.67;dx1=18;dx2=18;dy3=0.15;dx3=27;notch=0;rotation=90;flipV=1;labelBackgroundColor=none;fillColor=#B2C9AB;strokeColor=#000000;fontColor=#46495D;sketch=1;curveFitting=1;jiggle=2;" parent="1" vertex="1">
          <mxGeometry x="121.75" y="528" width="36.5" height="60" as="geometry" />
        </mxCell>
        <mxCell id="qcUZMT7_kW-sap-ayvWj-20" value="&lt;b&gt;Download additional data for all hits&lt;/b&gt;" style="rounded=1;whiteSpace=wrap;html=1;flipV=1;labelBackgroundColor=none;fillColor=#B2C9AB;strokeColor=#000000;fontColor=#000000;sketch=1;curveFitting=1;jiggle=2;" parent="1" vertex="1">
          <mxGeometry x="37" y="582" width="206" height="60" as="geometry" />
        </mxCell>
        <mxCell id="qcUZMT7_kW-sap-ayvWj-23" value="&lt;b&gt;File: FASTA_NAME_top_100_hits.h5.lz&lt;/b&gt;&lt;div&gt;&lt;b&gt;File: FASTA_NAME_top_100_hits.xlsx&lt;/b&gt;&lt;br&gt;&lt;/div&gt;" style="shape=internalStorage;whiteSpace=wrap;html=1;backgroundOutline=1;labelBackgroundColor=none;fillColor=#B2C9AB;strokeColor=#000000;fontColor=#000000;sketch=1;curveFitting=1;jiggle=2;" parent="1" vertex="1">
          <mxGeometry x="330" y="577" width="360" height="70" as="geometry" />
        </mxCell>
        <mxCell id="qcUZMT7_kW-sap-ayvWj-26" value="&lt;b&gt;Calculate the top hit for each query&lt;/b&gt;" style="rounded=1;whiteSpace=wrap;html=1;flipV=1;labelBackgroundColor=none;fillColor=#B2C9AB;strokeColor=#000000;fontColor=#000000;sketch=1;curveFitting=1;jiggle=2;" parent="1" vertex="1">
          <mxGeometry x="37" y="690" width="206" height="60" as="geometry" />
        </mxCell>
        <mxCell id="qcUZMT7_kW-sap-ayvWj-27" value="" style="html=1;shadow=0;dashed=0;align=center;verticalAlign=middle;shape=mxgraph.arrows2.sharpArrow2;dy1=0.67;dx1=18;dx2=18;dy3=0.15;dx3=27;notch=0;rotation=90;flipV=1;labelBackgroundColor=none;fillColor=#B2C9AB;strokeColor=#000000;fontColor=#46495D;sketch=1;curveFitting=1;jiggle=2;" parent="1" vertex="1">
          <mxGeometry x="121.75" y="636" width="36.5" height="60" as="geometry" />
        </mxCell>
        <mxCell id="qcUZMT7_kW-sap-ayvWj-30" value="&lt;b&gt;File: FASTA_NAME_identification_result.parquet.snappy&lt;/b&gt;&lt;div&gt;&lt;b&gt;File: FASTA_NAME_identification_result..xlsx&lt;/b&gt;&lt;br&gt;&lt;/div&gt;" style="shape=internalStorage;whiteSpace=wrap;html=1;backgroundOutline=1;labelBackgroundColor=none;fillColor=#B2C9AB;strokeColor=#000000;fontColor=#000000;sketch=1;curveFitting=1;jiggle=2;" parent="1" vertex="1">
          <mxGeometry x="330" y="685" width="360" height="70" as="geometry" />
        </mxCell>
        <mxCell id="4RQInvYUfKSB-_xPZgyC-5" value="" style="endArrow=classic;html=1;rounded=0;sketch=1;hachureGap=4;jiggle=2;curveFitting=1;fontFamily=Architects Daughter;fontSource=https%3A%2F%2Ffonts.googleapis.com%2Fcss%3Ffamily%3DArchitects%2BDaughter;entryX=0;entryY=0.5;entryDx=0;entryDy=0;" edge="1" parent="1" target="v3sZ_OI-lQdHN_WBkO5k-12">
          <mxGeometry relative="1" as="geometry">
            <mxPoint x="243" y="177" as="sourcePoint" />
            <mxPoint x="328" y="179" as="targetPoint" />
          </mxGeometry>
        </mxCell>
        <mxCell id="4RQInvYUfKSB-_xPZgyC-6" value="&lt;b&gt;Save&lt;/b&gt;" style="edgeLabel;resizable=0;html=1;;align=center;verticalAlign=middle;sketch=1;hachureGap=4;jiggle=2;curveFitting=1;fontFamily=Architects Daughter;fontSource=https%3A%2F%2Ffonts.googleapis.com%2Fcss%3Ffamily%3DArchitects%2BDaughter;" connectable="0" vertex="1" parent="4RQInvYUfKSB-_xPZgyC-5">
          <mxGeometry relative="1" as="geometry" />
        </mxCell>
        <mxCell id="4RQInvYUfKSB-_xPZgyC-10" value="&lt;font style=&quot;font-size: 16px;&quot;&gt;Save&lt;/font&gt;" style="edgeLabel;html=1;align=center;verticalAlign=middle;resizable=0;points=[];sketch=1;hachureGap=4;jiggle=2;curveFitting=1;fontFamily=Architects Daughter;fontSource=https%3A%2F%2Ffonts.googleapis.com%2Fcss%3Ffamily%3DArchitects%2BDaughter;" vertex="1" connectable="0" parent="4RQInvYUfKSB-_xPZgyC-5">
          <mxGeometry x="0.0122" y="-2" relative="1" as="geometry">
            <mxPoint as="offset" />
          </mxGeometry>
        </mxCell>
      </root>
    </mxGraphModel>
  </diagram>
</mxfile>
